<?xml version="1.0" encoding="utf-8"?>
<!-- Generator: Adobe Illustrator 16.0.0, SVG Export Plug-In . SVG Version: 6.00 Build 0)  -->
<!DOCTYPE svg PUBLIC "-//W3C//DTD SVG 1.1//EN" "http://www.w3.org/Graphics/SVG/1.1/DTD/svg11.dtd">
<svg version="1.1" id="Layer_1" xmlns="http://www.w3.org/2000/svg" xmlns:xlink="http://www.w3.org/1999/xlink" x="0px" y="0px"
	 width="534.545px" height="458.491px" viewBox="0 0 534.545 458.491" enable-background="new 0 0 534.545 458.491"
	 xml:space="preserve">
<g>
	<path fill="#FFFFFF" d="M344.523,374.761l63.255-56.462l-1.458-1.634l64.716-57.767l-2.916-3.269l-64.719,57.765l-1.458-1.633
		l-66.182,59.073v21.93h190.706v-8.769H344.523V374.761L344.523,374.761z M343.273,140.774l2.191-0.088v-2.189
		c0-30.248,21.948-52.199,52.197-52.199c30.25,0,52.201,21.951,52.201,52.199h-2.19c0,22.558-14.648,48.239-42.365,74.252
		L288.912,321.259c0.287-3.693,0.475-7.414,0.475-11.179c0-43.801-19.711-83.062-50.703-109.453
		c13.881-17.236,22.657-38.012,25.397-59.853H343.273L343.273,140.774z M148.107,449.401V420.36
		c59.771-0.8,108.16-49.645,108.16-109.604c0-59.955-48.384-108.802-108.151-109.604v-30.391
		c75.703,1.338,136.886,63.299,136.886,139.319C285.002,386.104,223.817,448.065,148.107,449.401L148.107,449.401z M146.627,407.252
		h-2.815v4.339c-54.666-1.13-98.799-45.918-98.801-100.854h0.008c0-55.065,44.35-99.941,99.204-100.853v4.371h2.404
		c53.209,0,96.498,43.293,96.498,96.501C243.125,363.963,199.836,407.252,146.627,407.252L146.627,407.252z M89.417,182.219
		c-30.998-30.998-30.998-81.443,0-112.441c14.591-14.59,33.835-22.801,54.39-23.258v34.889c-23.666,1.111-42.59,20.653-42.59,44.588
		c0,23.907,18.882,43.435,42.508,44.593v34.883C123.201,204.989,103.986,196.784,89.417,182.219L89.417,182.219z M145.852,85.683
		c0,0,0.877,0.024,1.594,0.043c21.539,0.812,38.823,18.537,38.823,40.271c0,22.099-17.868,40.093-39.914,40.331
		c-0.146,0-0.291-0.012-0.438-0.012c-22.231,0-40.319-18.088-40.319-40.318S123.686,85.683,145.852,85.683L145.852,85.683z
		 M399.437,6.851V2.452c-65.387,0-114.576,34.841-134.202,91.767C251.177,41.483,203.021,2.512,145.917,2.512v2.191
		c-66.882,0-121.294,54.409-121.294,121.293h2.19c0,29.387,10.809,57.623,30.435,79.502l3.259-2.927
		c-18.901-21.076-29.313-48.269-29.313-76.575h2.19c0-62.052,50.483-112.534,112.533-112.534v2.191
		c60.841,0,110.34,49.498,110.34,110.343l-0.029,14.778h3.445c-2.712,20.818-11.132,40.613-24.366,57.064
		c-20.41-16.343-45.345-27.235-72.609-30.476c16.33-6.651,27.882-22.674,27.882-41.366c0-23.863-18.827-43.357-42.402-44.547
		l0.002-0.091c-0.018,0-0.045-0.002-0.064-0.002V42.197c0,0-2.368-0.01-2.481-0.01c-22.392,0-43.428,8.711-59.264,24.544
		c-32.679,32.679-32.679,85.852,0,118.533c11.023,11.024,24.569,18.582,39.335,22.164c-48.413,9.453-85.068,52.169-85.068,103.308
		h0.008c0.001,57.312,46.045,104.042,103.079,105.218v31.269c-35.75-0.559-69.28-14.708-94.618-40.047l-1.554,1.554
		c-26.27-26.275-40.735-61.203-40.735-98.353H2.452c0,38.313,14.921,74.343,42.015,101.439l-1.554,1.552
		c27.51,27.519,64.092,42.671,103.004,42.671h2.184v-2.261c38.818-0.658,73.941-16.752,99.455-42.427v42.494h278.912v-4.382h-274.53
		v-42.815l-1.163,1.327c18.589-19.957,31.564-45.181,36.44-73.162l124.077-115.667l0.014-0.01
		c29.523-27.712,45.129-55.597,45.129-80.64h-2.191c0-32.786-23.795-56.581-56.581-56.581c-32.054,0-55.514,22.744-56.544,54.477
		h-32.915v-11.534c0-18.315,8.421-36.964,23.104-51.173c11.825-11.446,33.041-25.088,66.943-25.088
		c72.704,0,91.913,57.156,91.913,87.378c0,21.35-4.591,47.945-38.596,83.235c-0.165,0.162-16.354,16.226-20.107,19.825
		c-46.95,44.998-139.692,128.404-139.692,128.404v57.062h116.537v-2.193h118.162v-4.378H408.306v-2.188H296.148V369.39
		c8.745-7.874,93.577-84.282,138.345-127.193c3.78-3.623,19.994-19.712,20.193-19.911c19.712-20.456,39.854-46.701,39.854-86.31
		c0-31.74-20.124-91.76-96.29-91.76c-35.365,0-57.582,14.315-69.988,26.321c-15.534,15.031-24.441,34.829-24.441,54.322v11.534
		h-34.025c3.176-35.938,16.664-66.15,39.171-87.481c22.993-21.795,54.277-33.316,90.47-33.316v-4.363
		c73.13,0,128.274,54.972,128.274,127.875h4.382C532.093,63.708,475.062,6.851,399.437,6.851L399.437,6.851z M186.117,350.572
		c-10.74,10.732-25.015,16.652-40.203,16.652c-15.184,0-29.46-5.92-40.196-16.652c-22.165-22.164-22.164-58.23,0.002-80.399
		c10.736-10.732,25.011-16.647,40.194-16.647c15.186,0,29.461,5.915,40.2,16.651c10.735,10.738,16.649,25.014,16.649,40.198
		C202.764,325.559,196.853,339.835,186.117,350.572L186.117,350.572z M145.914,249.146c-16.354,0-31.728,6.367-43.292,17.934
		c-23.875,23.871-23.876,62.716-0.002,86.59c11.564,11.565,26.941,17.933,43.295,17.933c16.356,0,31.734-6.367,43.298-17.933
		c11.565-11.568,17.934-26.939,17.934-43.294s-6.371-31.73-17.934-43.296C177.648,255.513,162.271,249.146,145.914,249.146
		L145.914,249.146z"/>
	<g>
		<path fill="#FFFFFF" d="M344.523,374.761l63.255-56.462l-1.458-1.634l64.716-57.767l-2.916-3.269l-64.719,57.765l-1.458-1.633
			l-66.182,59.073v21.93h190.706v-8.769H344.523V374.761L344.523,374.761z M343.273,140.774l2.191-0.088v-2.189
			c0-30.248,21.948-52.199,52.197-52.199c30.25,0,52.201,21.951,52.201,52.199h-2.19c0,22.558-14.648,48.239-42.365,74.252
			L288.912,321.259c0.287-3.693,0.475-7.414,0.475-11.179c0-43.801-19.711-83.062-50.703-109.453
			c13.881-17.236,22.657-38.012,25.397-59.853H343.273L343.273,140.774z M148.107,449.401V420.36
			c59.771-0.8,108.16-49.645,108.16-109.604c0-59.955-48.384-108.802-108.151-109.604v-30.391
			c75.703,1.338,136.886,63.299,136.886,139.319C285.002,386.104,223.817,448.065,148.107,449.401L148.107,449.401z
			 M146.627,407.252h-2.815v4.339c-54.666-1.13-98.799-45.918-98.801-100.854h0.008c0-55.065,44.35-99.941,99.204-100.853v4.371
			h2.404c53.209,0,96.498,43.293,96.498,96.501C243.125,363.963,199.836,407.252,146.627,407.252L146.627,407.252z M89.417,182.219
			c-30.998-30.998-30.998-81.443,0-112.441c14.591-14.59,33.835-22.801,54.39-23.258v34.889
			c-23.666,1.111-42.59,20.653-42.59,44.588c0,23.907,18.882,43.435,42.508,44.593v34.883
			C123.201,204.989,103.986,196.784,89.417,182.219L89.417,182.219z M145.852,85.683c0,0,0.877,0.024,1.594,0.043
			c21.539,0.812,38.823,18.537,38.823,40.271c0,22.099-17.868,40.093-39.914,40.331c-0.146,0-0.291-0.012-0.438-0.012
			c-22.231,0-40.319-18.088-40.319-40.318S123.686,85.683,145.852,85.683L145.852,85.683z M399.437,6.851V2.452
			c-65.387,0-114.576,34.841-134.202,91.767C251.177,41.483,203.021,2.512,145.917,2.512v2.191
			c-66.882,0-121.294,54.409-121.294,121.293h2.19c0,29.387,10.809,57.623,30.435,79.502l3.259-2.927
			c-18.901-21.076-29.313-48.269-29.313-76.575h2.19c0-62.052,50.483-112.534,112.533-112.534v2.191
			c60.841,0,110.34,49.498,110.34,110.343l-0.029,14.778h3.445c-2.712,20.818-11.132,40.613-24.366,57.064
			c-20.41-16.343-45.345-27.235-72.609-30.476c16.33-6.651,27.882-22.674,27.882-41.366c0-23.863-18.827-43.357-42.402-44.547
			l0.002-0.091c-0.018,0-0.045-0.002-0.064-0.002V42.197c0,0-2.368-0.01-2.481-0.01c-22.392,0-43.428,8.711-59.264,24.544
			c-32.679,32.679-32.679,85.852,0,118.533c11.023,11.024,24.569,18.582,39.335,22.164c-48.413,9.453-85.068,52.169-85.068,103.308
			h0.008c0.001,57.312,46.045,104.042,103.079,105.218v31.269c-35.75-0.559-69.28-14.708-94.618-40.047l-1.554,1.554
			c-26.27-26.275-40.735-61.203-40.735-98.353H2.452c0,38.313,14.921,74.343,42.015,101.439l-1.554,1.552
			c27.51,27.519,64.092,42.671,103.004,42.671h2.184v-2.261c38.818-0.658,73.941-16.752,99.455-42.427v42.494h278.912v-4.382
			h-274.53v-42.815l-1.163,1.327c18.589-19.957,31.564-45.181,36.44-73.162l124.077-115.667l0.014-0.01
			c29.523-27.712,45.129-55.597,45.129-80.64h-2.191c0-32.786-23.795-56.581-56.581-56.581c-32.054,0-55.514,22.744-56.544,54.477
			h-32.915v-11.534c0-18.315,8.421-36.964,23.104-51.173c11.825-11.446,33.041-25.088,66.943-25.088
			c72.704,0,91.913,57.156,91.913,87.378c0,21.35-4.591,47.945-38.596,83.235c-0.165,0.162-16.354,16.226-20.107,19.825
			c-46.95,44.998-139.692,128.404-139.692,128.404v57.062h116.537v-2.193h118.162v-4.378H408.306v-2.188H296.148V369.39
			c8.745-7.874,93.577-84.282,138.345-127.193c3.78-3.623,19.994-19.712,20.193-19.911c19.712-20.456,39.854-46.701,39.854-86.31
			c0-31.74-20.124-91.76-96.29-91.76c-35.365,0-57.582,14.315-69.988,26.321c-15.534,15.031-24.441,34.829-24.441,54.322v11.534
			h-34.025c3.176-35.938,16.664-66.15,39.171-87.481c22.993-21.795,54.277-33.316,90.47-33.316v-4.363
			c73.13,0,128.274,54.972,128.274,127.875h4.382C532.093,63.708,475.062,6.851,399.437,6.851L399.437,6.851z M186.117,350.572
			c-10.74,10.732-25.015,16.652-40.203,16.652c-15.184,0-29.46-5.92-40.196-16.652c-22.165-22.164-22.164-58.23,0.002-80.399
			c10.736-10.732,25.011-16.647,40.194-16.647c15.186,0,29.461,5.915,40.2,16.651c10.735,10.738,16.649,25.014,16.649,40.198
			C202.764,325.559,196.853,339.835,186.117,350.572L186.117,350.572z M145.914,249.146c-16.354,0-31.728,6.367-43.292,17.934
			c-23.875,23.871-23.876,62.716-0.002,86.59c11.564,11.565,26.941,17.933,43.295,17.933c16.356,0,31.734-6.367,43.298-17.933
			c11.565-11.568,17.934-26.939,17.934-43.294s-6.371-31.73-17.934-43.296C177.648,255.513,162.271,249.146,145.914,249.146
			L145.914,249.146z"/>
		<path fill="#FFFFFF" d="M150.553,458.491h-4.636c-39.569,0-76.767-15.409-104.738-43.39l-1.735-1.736l1.568-1.565
			C14.544,384.448,0,348.53,0,310.377v-2.452h9.271v2.452c0,35.677,13.58,69.269,38.299,94.868l1.538-1.537l1.734,1.734
			c24.225,24.226,56.256,38.114,90.432,39.266v-26.379c-56.241-2.423-101.76-48.87-103.052-105.141h-0.027l-0.008-2.452
			c0-48.324,32.35-90.51,78.131-103.575c-11.836-4.271-22.657-11.14-31.68-20.164c-33.634-33.636-33.634-88.366,0-122
			c16.294-16.291,37.958-25.263,60.998-25.263l4.933,0.02l0.064,39.419c23.959,2.384,42.399,22.517,42.399,46.822
			c0,16.562-8.56,31.563-22.346,40.056c23.336,4.052,45.354,13.757,64.21,28.342c11.506-14.952,19.049-32.54,21.95-51.168h-3.075
			l0.033-17.235c0-59.486-48.399-107.886-107.888-107.886h-2.452V15.94C83.893,17.248,35.836,66.115,35.836,125.997v2.452h-2.164
			c0.583,26.813,10.708,52.469,28.661,72.486l1.635,1.823l-6.907,6.205l-1.639-1.826c-19.484-21.721-30.453-49.58-31.036-78.688
			h-2.215v-2.452c0-67.414,54.189-122.41,121.294-123.722V0.06h2.452c54.489,0,102.641,35.189,119.573,86.438
			C287.2,32.18,336.739,0,399.437,0h2.451v4.418c75.806,1.213,132.657,58.709,132.657,134.69v2.452h-9.286v-2.452
			c0-70.687-52.862-124.19-123.371-125.401v4.341h-2.451c-35.555,0-66.254,11.288-88.784,32.643
			c-21.45,20.332-34.613,49.073-38.157,83.25h28.874v-9.082c0-20.153,9.181-40.595,25.188-56.084
			c12.731-12.322,35.506-27.011,71.693-27.011c78.105,0,98.742,61.627,98.742,94.212c0,40.483-20.495,67.208-40.542,88.012
			c-0.165,0.167-16.448,16.325-20.263,19.979c-42.454,40.696-120.271,110.92-137.588,126.516v42.81h112.157v2.188H528.92v9.281
			H410.758v2.194h-121.44v-60.607l0.812-0.729c0.927-0.836,93.252-83.896,139.635-128.352c1.506-1.444,6.097-5.938,19.415-19.139
			l0.675-0.669c33.354-34.616,37.858-60.619,37.858-81.483c0-29.374-18.697-84.926-89.461-84.926
			c-33.088,0-53.739,13.267-65.238,24.398c-14.209,13.75-22.357,31.759-22.357,49.411v9.082h28.131
			c2.155-31.71,26.561-54.477,58.876-54.477c33.382,0,57.833,23.646,58.99,56.582h2.233v2.452c0,25.737-15.873,54.24-45.901,82.427
			l-0.165,0.151L289.487,336.05c-4.799,26.635-16.916,51.358-35.098,71.607v39.354h274.53v9.286H245.104v-39.161
			c-25.89,24.095-59.172,37.858-94.551,39.034V458.491z M46.396,413.356c26.773,25.899,61.912,40.164,99.252,40.23l0.007-3.881
			l-1.968-0.031c-35.57-0.556-69.055-14.401-94.564-39.046l-1.188,1.188l0.001,0.002L46.396,413.356z M150.56,422.752v24.13
			c73.01-2.621,131.99-63.473,131.99-136.802c0-73.326-58.976-134.176-131.981-136.8v25.478
			c59.857,2.093,108.15,51.837,108.15,111.998C258.719,370.919,210.422,420.662,150.56,422.752z M294.221,422.051h111.633v-3.855
			H294.221V422.051z M146.178,414.094v3.841l1.897-0.026c58.305-0.78,105.74-48.85,105.74-107.152
			c0-58.301-47.432-106.371-105.731-107.152l-1.906-0.026v3.822l0.497-0.008v4.412c54.537,0.028,98.901,44.408,98.901,98.954
			c0,54.561-44.388,98.948-98.949,98.948h-0.363L146.178,414.094z M47.471,312.013c0.675,51.754,42.311,94.655,93.889,97.043V404.8
			h5.267c51.856,0,94.045-42.188,94.045-94.044c0-51.859-42.189-94.049-94.045-94.049h-4.856v-4.298
			c-52.223,2.196-94.299,45.791-94.299,98.328V312.013z M286.446,326.909c-0.247,2.04-0.537,4.066-0.87,6.08l124.2-115.779
			c27.949-26.279,43.166-52.583,44.155-76.261h-3.862c-1.006,22.647-15.85,48.028-43.083,73.588L286.446,326.909z M242.06,200.306
			c31.666,27.846,49.779,67.718,49.779,109.774c0,1.672-0.036,3.398-0.11,5.201l111.907-104.325
			c27.203-25.531,41.585-50.589,41.585-72.459v-2.452h2.141c-1.152-27.553-21.695-47.295-49.699-47.295
			c-28.824,0-49.745,20.921-49.745,49.747v4.544l-4.545,0.183l-77.147,0.002C263.237,164.042,254.92,183.688,242.06,200.306z
			 M135.874,207.373l1.301,0.315l-0.94,0.184c0.842-0.08,1.689-0.149,2.537-0.208C137.803,207.583,136.836,207.486,135.874,207.373z
			 M141.355,49.067c-18.958,1.031-36.704,8.945-50.205,22.444c-30.043,30.044-30.043,78.929,0,108.973
			c13.474,13.47,31.192,21.381,50.123,22.436v-30.053c-24.02-2.353-42.508-22.508-42.508-46.871
			c0-24.409,18.524-44.564,42.59-46.872V49.067z M151.551,168.409c0.619,0.026,1.238,0.056,1.855,0.09l1.838-0.749
			C154.032,168.023,152.8,168.244,151.551,168.409z M145.821,88.135c-20.831,0.017-37.771,16.995-37.771,37.862
			c0,20.879,16.987,37.867,37.867,37.867l0.32,0.008c20.763-0.219,37.58-17.211,37.58-37.875c0-20.438-16.018-37.05-36.463-37.82
			L145.821,88.135z M262.465,138.322h4.699l0.189-2.146c3.23-36.56,17.038-67.351,39.927-89.045
			c22.933-21.739,53.909-33.458,89.703-33.97V4.921c-61.95,0.863-110.229,34.404-129.432,90.098l-2.619,7.594l-2.069-7.762
			C248.968,42.718,202.098,6.073,148.369,4.989v2.166h-2.452c-64.71,0-117.506,51.988-118.816,116.389h3.856
			C32.269,61.27,83.334,11.01,145.917,11.01h2.452v2.217c61.066,1.31,110.341,51.394,110.341,112.769l-0.024,12.326H262.465z
			 M528.92,395.217H333.31v-25.48l68.83-61.438l1.458,1.633l64.718-57.764l6.184,6.927l-64.716,57.768l1.458,1.633l-64.266,57.364
			v5.685H528.92V395.217z M338.214,390.313h185.803v-3.865H342.071v-12.787l62.245-55.559l-2.569-2.879l-63.533,56.711V390.313z
			 M145.914,374.054c-17.011,0-33.003-6.623-45.028-18.651c-12.01-12.009-18.624-28.002-18.623-45.03
			c0-17.027,6.615-33.019,18.625-45.027c12.026-12.027,28.017-18.651,45.026-18.651c17.014,0,33.007,6.624,45.031,18.651
			c12.028,12.03,18.652,28.021,18.652,45.03c0,17.006-6.624,32.997-18.652,45.027C178.921,367.431,162.928,374.054,145.914,374.054z
			 M145.914,255.978c-14.526,0-28.185,5.656-38.46,15.929c-21.21,21.214-21.211,55.724-0.003,76.933
			c10.279,10.275,23.939,15.934,38.463,15.934c14.526,0,28.187-5.658,38.469-15.934c10.272-10.272,15.929-23.934,15.929-38.464
			c0-14.528-5.658-28.188-15.931-38.464C174.103,261.636,160.442,255.978,145.914,255.978z"/>
	</g>
</g>
</svg>
